/* XPM */
static char *result[] = {
/* columns rows colors chars-per-pixel */
"64 64 27 1 ",
"  c black",
". c #3A0000",
"X c #00002D",
"o c #00272D",
"O c #660000",
"+ c #000051",
"@ c #002771",
"# c #666271",
"$ c #902700",
"% c #B64600",
"& c #90462D",
"* c #DB622D",
"= c #FF7C51",
"- c #22B14C",
"; c #FF9571",
": c #004690",
"> c #3A6290",
", c #3A62AD",
"< c #667C90",
"1 c #667CC9",
"2 c #DBAE90",
"3 c #FFAE90",
"4 c #FFAEAD",
"5 c #9095C9",
"6 c #B6AEC9",
"7 c #DBAEC9",
"8 c #FFAEC9",
/* pixels */
"----------------------------------------------------------------",
"----------------------------------------------------------------",
"----------------------------------------------------------------",
"----------------------------------------------------------------",
"----------------------------------------------------------------",
"-----888888888888888888888888888888888888888888888888888888-----",
"-----888888888888888888888888888888888888888888888888888888-----",
"-----888888888888888888888888888888888888888888888888888888-----",
"-----888888888888888888888888888888888888888888888888888888-----",
"-----888888888888888888888888888888888888888888888888888888-----",
"-----888888888888888888888888888888888888888888888888888888-----",
"-----888888888888888888888888888888888888888888888888888888-----",
"-----888888888888888888888888888888888888888888888888888888-----",
"-----888888888888888888888888888888888888888888888888888888-----",
"-----888888888888888888888888888888888888888888888888888888-----",
"-----888888888888888888888888888888888888888888888888888888-----",
"-----888888888888888888888888888888888888888888888888888888-----",
"-----888888888888888888888888888888888888888888888888888888-----",
"-----888888888888888888888888888888888888888888888888888888-----",
"-----888888888888888888888888888888888888888888888888888888-----",
"-----888888888888888888888%  >8888883OX58888888888888888888-----",
"-----888888888888888888888%   1888883OX58888888888888888888-----",
"-----888888888888888888888%   @788883OX58888888888888888888-----",
"-----888888888888888888888% #. 188883OX58888888888888888888-----",
"-----888888888888888888888% 1% +68883OX58888888888888888888-----",
"-----888888888888888888888% ,3O ,8883OX58888888888888888888-----",
"-----888888888888888888888% ,8* +6883OX58888888888888888888-----",
"-----888888888888888888888% ,83O :883OX58888888888888888888-----",
"-----888888888888888888888% ,88= X583OX58888888888888888888-----",
"-----888888888888888888888% ,884$ :83OX58888888888888888888-----",
"-----888888888888888888888% ,888=  13OX58888888888888888888-----",
"-----888888888888888888888% ,8888% @2OX58888888888888888888-----",
"-----888888888888888888888% ,8888;. <OX58888888888888888888-----",
"-----888888888888888888888% ,88888* o.X58888888888888888888-----",
"-----888888888888888888888% ,888883O  X58888888888888888888-----",
"-----888888888888888888888% ,888888*  X58888888888888888888-----",
"-----888888888888888888888% ,8888884& +68888888888888888888-----",
"-----888888888888888888888888888888888888888888888888888888-----",
"-----888888888888888888888888888888888888888888888888888888-----",
"-----888888888888888888888888888888888888888888888888888888-----",
"-----888888888888888888888888888888888888888888888888888888-----",
"-----888888888888888888888888888888888888888888888888888888-----",
"-----888888888888888888888888888888888888888888888888888888-----",
"-----888888888888888888888888888888888888888888888888888888-----",
"-----888888888888888888888888888888888888888888888888888888-----",
"-----888888888888888888888888888888888888888888888888888888-----",
"-----888888888888888888888888888888888888888888888888888888-----",
"-----888888888888888888888888888888888888888888888888888888-----",
"-----888888888888888888888888888888888888888888888888888888-----",
"-----888888888888888888888888888888888888888888888888888888-----",
"-----888888888888888888888888888888888888888888888888888888-----",
"-----888888888888888888888888888888888888888888888888888888-----",
"-----888888888888888888888888888888888888888888888888888888-----",
"-----888888888888888888888888888888888888888888888888888888-----",
"-----888888888888888888888888888888888888888888888888888888-----",
"-----888888888888888888888888888888888888888888888888888888-----",
"-----888888888888888888888888888888888888888888888888888888-----",
"-----888888888888888888888888888888888888888888888888888888-----",
"-----888888888888888888888888888888888888888888888888888888-----",
"----------------------------------------------------------------",
"----------------------------------------------------------------",
"----------------------------------------------------------------",
"----------------------------------------------------------------",
"----------------------------------------------------------------"
};
