/* XPM */
static char *result[] = {
/* columns rows colors chars-per-pixel */
"64 64 27 1 ",
"  c black",
". c #003A00",
"X c #00003A",
"o c #003A3A",
"O c #006600",
"+ c #00663A",
"@ c #003A66",
"# c #006666",
"$ c #ED1C24",
"% c #00903A",
"& c #009066",
"* c #00B666",
"= c #003A90",
"- c #006690",
"; c #0066B6",
": c #00B690",
"> c #0090B6",
", c #00DB90",
"< c #00DBB6",
"1 c #00FFB6",
"2 c #0090DB",
"3 c #00B6DB",
"4 c #00B6FF",
"5 c #00DBDB",
"6 c #00FFDB",
"7 c #00DBFF",
"8 c cyan",
/* pixels */
"$$$$$$$$$$$$$$$$$$$$$$$$$$$$$$$$$$$$$$$$$$$$$$$$$$$$$$$$$$$$$$$$",
"$$$$$$$$$$$$$$$$$$$$$$$$$$$$$$$$$$$$$$$$$$$$$$$$$$$$$$$$$$$$$$$$",
"$$$$$$$$$$$$$$$$$$$$$$$$$$$$$$$$$$$$$$$$$$$$$$$$$$$$$$$$$$$$$$$$",
"$$$$$$$$$$$$$$$$$$$$$$$$$$$$$$$$$$$$$$$$$$$$$$$$$$$$$$$$$$$$$$$$",
"$$$$$$$$$$$$$$$$$$$$$$$$$$$$$$$$$$$$$$$$$$$$$$$$$$$$$$$$$$$$$$$$",
"$$$$$888888888888888888888888888888888888888888888888888888$$$$$",
"$$$$$888888888888888888888888888888888888888888888888888888$$$$$",
"$$$$$888888888888888888888888888888888888888888888888888888$$$$$",
"$$$$$888888888888888888888888888888888888888888888888888888$$$$$",
"$$$$$888888888888888888888888888888888888888888888888888888$$$$$",
"$$$$$888888888888888888888888888888888888888888888888888888$$$$$",
"$$$$$888888888888888888888888888888888888888888888888888888$$$$$",
"$$$$$888888888888888888888888888888888888888888888888888888$$$$$",
"$$$$$888888888888888888888888888888888888888888888888888888$$$$$",
"$$$$$888888888888888888888888888888888888888888888888888888$$$$$",
"$$$$$888888888888888888888888888888888888888888888888888888$$$$$",
"$$$$$888888888888888888888888888888888888888888888888888888$$$$$",
"$$$$$888888888888888888888888888888888888888888888888888888$$$$$",
"$$$$$888888888888888888888888888888888888888888888888888888$$$$$",
"$$$$$888888888888888888888888888888888888888888888888888888$$$$$",
"$$$$$888888888888888888888888888888888888888888888888888888$$$$$",
"$$$$$888888888888888888888888888888888888888888888888888888$$$$$",
"$$$$$8888888888888888888888888:o   @38888888888888888888888$$$$$",
"$$$$$888888888888888888888888%  Xo   2888888888888888888888$$$$$",
"$$$$$88888888888888888888888*  3888<o2888888888888888888888$$$$$",
"$$$$$88888888888888888888888% =8888888888888888888888888888$$$$$",
"$$$$$88888888888888888888888O ;8888888888888888888888888888$$$$$",
"$$$$$88888888888888888888888% X7888888888888888888888888888$$$$$",
"$$$$$888888888888888888888881  X388888888888888888888888888$$$$$",
"$$$$$888888888888888888888888,   X>888888888888888888888888$$$$$",
"$$$$$88888888888888888888888885+   X38888888888888888888888$$$$$",
"$$$$$8888888888888888888888888886&   2888888888888888888888$$$$$",
"$$$$$88888888888888888888888888888<. X788888888888888888888$$$$$",
"$$$$$888888888888888888888888888888,  488888888888888888888$$$$$",
"$$$$$8888888888888888888888888888881  288888888888888888888$$$$$",
"$$$$$888888888888888888888888888888,  488888888888888888888$$$$$",
"$$$$$88888888888888888888881X-5888:  =888888888888888888888$$$$$",
"$$$$$88888888888888888888881        @8888888888888888888888$$$$$",
"$$$$$88888888888888888888888<#.   o>88888888888888888888888$$$$$",
"$$$$$888888888888888888888888888888888888888888888888888888$$$$$",
"$$$$$888888888888888888888888888888888888888888888888888888$$$$$",
"$$$$$888888888888888888888888888888888888888888888888888888$$$$$",
"$$$$$888888888888888888888888888888888888888888888888888888$$$$$",
"$$$$$888888888888888888888888888888888888888888888888888888$$$$$",
"$$$$$888888888888888888888888888888888888888888888888888888$$$$$",
"$$$$$888888888888888888888888888888888888888888888888888888$$$$$",
"$$$$$888888888888888888888888888888888888888888888888888888$$$$$",
"$$$$$888888888888888888888888888888888888888888888888888888$$$$$",
"$$$$$888888888888888888888888888888888888888888888888888888$$$$$",
"$$$$$888888888888888888888888888888888888888888888888888888$$$$$",
"$$$$$888888888888888888888888888888888888888888888888888888$$$$$",
"$$$$$888888888888888888888888888888888888888888888888888888$$$$$",
"$$$$$888888888888888888888888888888888888888888888888888888$$$$$",
"$$$$$888888888888888888888888888888888888888888888888888888$$$$$",
"$$$$$888888888888888888888888888888888888888888888888888888$$$$$",
"$$$$$888888888888888888888888888888888888888888888888888888$$$$$",
"$$$$$888888888888888888888888888888888888888888888888888888$$$$$",
"$$$$$888888888888888888888888888888888888888888888888888888$$$$$",
"$$$$$888888888888888888888888888888888888888888888888888888$$$$$",
"$$$$$$$$$$$$$$$$$$$$$$$$$$$$$$$$$$$$$$$$$$$$$$$$$$$$$$$$$$$$$$$$",
"$$$$$$$$$$$$$$$$$$$$$$$$$$$$$$$$$$$$$$$$$$$$$$$$$$$$$$$$$$$$$$$$",
"$$$$$$$$$$$$$$$$$$$$$$$$$$$$$$$$$$$$$$$$$$$$$$$$$$$$$$$$$$$$$$$$",
"$$$$$$$$$$$$$$$$$$$$$$$$$$$$$$$$$$$$$$$$$$$$$$$$$$$$$$$$$$$$$$$$",
"$$$$$$$$$$$$$$$$$$$$$$$$$$$$$$$$$$$$$$$$$$$$$$$$$$$$$$$$$$$$$$$$"
};
