/* XPM */
static char *result[] = {
/* columns rows colors chars-per-pixel */
"64 64 19 1 ",
"  c black",
". c #3A0000",
"X c #003600",
"o c #660000",
"O c #006100",
"+ c #903600",
"@ c #906100",
"# c #B66100",
"$ c #3A8800",
"% c #66AC00",
"& c #B68800",
"* c #DB8800",
"= c #FFAC00",
"- c #90CF00",
"; c #B6F200",
": c #FFCF00",
"> c #DBF200",
", c #FFF200",
"< c #00A2E8",
/* pixels */
"<<<<<<<<<<<<<<<<<<<<<<<<<<<<<<<<<<<<<<<<<<<<<<<<<<<<<<<<<<<<<<<<",
"<<<<<<<<<<<<<<<<<<<<<<<<<<<<<<<<<<<<<<<<<<<<<<<<<<<<<<<<<<<<<<<<",
"<<<<<<<<<<<<<<<<<<<<<<<<<<<<<<<<<<<<<<<<<<<<<<<<<<<<<<<<<<<<<<<<",
"<<<<<<<<<<<<<<<<<<<<<<<<<<<<<<<<<<<<<<<<<<<<<<<<<<<<<<<<<<<<<<<<",
"<<<<<<<<<<<<<<<<<<<<<<<<<<<<<<<<<<<<<<<<<<<<<<<<<<<<<<<<<<<<<<<<",
"<<<<<,,,,,,,,,,,,,,,,,,,,,,,,,,,,,,,,,,,,,,,,,,,,,,,,,,,,,,<<<<<",
"<<<<<,,,,,,,,,,,,,,,,,,,,,,,,,,,,,,,,,,,,,,,,,,,,,,,,,,,,,,<<<<<",
"<<<<<,,,,,,,,,,,,,,,,,,,,,,,,,,,,,,,,,,,,,,,,,,,,,,,,,,,,,,<<<<<",
"<<<<<,,,,,,,,,,,,,,,,,,,,,,,,,,,,,,,,,,,,,,,,,,,,,,,,,,,,,,<<<<<",
"<<<<<,,,,,,,,,,,,,,,,,,,,,,,,,,,,,,,,,,,,,,,,,,,,,,,,,,,,,,<<<<<",
"<<<<<,,,,,,,,,,,,,,,,,,,,,,,,,,,,,,,,,,,,,,,,,,,,,,,,,,,,,,<<<<<",
"<<<<<,,,,,,,,,,,,,,,,,,,,,,,,,,,,,,,,,,,,,,,,,,,,,,,,,,,,,,<<<<<",
"<<<<<,,,,,,,,,,,,,,,,,,,,,,,,,,,,,,,,,,,,,,,,,,,,,,,,,,,,,,<<<<<",
"<<<<<,,,,,,,,,,,,,,,,,,,,,,,,,,,,,,,,,,,,,,,,,,,,,,,,,,,,,,<<<<<",
"<<<<<,,,,,,,,,,,,,,,,,,,,,,,,,,,,,,,,,,,,,,,,,,,,,,,,,,,,,,<<<<<",
"<<<<<,,,,,,,,,,,,,,,,,,,,,,,,,,,,,,,,,,,,,,,,,,,,,,,,,,,,,,<<<<<",
"<<<<<,,,,,,,,,,,,,,,,,,,,,,,,,,,,,,,,,,,,,,,,,,,,,,,,,,,,,,<<<<<",
"<<<<<,,,,,,,,,,,,,,,,,,,,,,,,,,,,,,,,,,,,,,,,,,,,,,,,,,,,,,<<<<<",
"<<<<<,,,,,,,,,,,,,,,,,,,,,,,,,,,,,,,,,,,,,,,,,,,,,,,,,,,,,,<<<<<",
"<<<<<,,,,,,,,,,,,,,,,,,,,,,,,,,,,,,,,,,,,,,,,,,,,,,,,,,,,,,<<<<<",
"<<<<<,,,,,,,,,,,,,,,,,,,,,,,,,,,,,,,,,,,,,,,,,,,,,,,,,,,,,,<<<<<",
"<<<<<,,,,,,,,,,,,,,,:. -,,,,,,=  -,,,,,,,o -,,,,,,,,,,,,,,,<<<<<",
"<<<<<,,,,,,,,,,,,,,,,o $,,,,,,*  $,,,,,,=  ;,,,,,,,,,,,,,,,<<<<<",
"<<<<<,,,,,,,,,,,,,,,,# X>,,,,,+  X>,,,,,# O,,,,,,,,,,,,,,,,<<<<<",
"<<<<<,,,,,,,,,,,,,,,,=  ;,,,,:.   ;,,,,,+ %,,,,,,,,,,,,,,,,<<<<<",
"<<<<<,,,,,,,,,,,,,,,,,o %,,,,= O+ %,,,,:. ;,,,,,,,,,,,,,,,,<<<<<",
"<<<<<,,,,,,,,,,,,,,,,,+ $,,,,# %# O,,,,= X>,,,,,,,,,,,,,,,,<<<<<",
"<<<<<,,,,,,,,,,,,,,,,,* X>,,,+ -= X>,,,# $,,,,,,,,,,,,,,,,,<<<<<",
"<<<<<,,,,,,,,,,,,,,,,,:. -,,:.X>,o -,,,o -,,,,,,,,,,,,,,,,,<<<<<",
"<<<<<,,,,,,,,,,,,,,,,,,+ %,,= O,,+ $,,:.X>,,,,,,,,,,,,,,,,,<<<<<",
"<<<<<,,,,,,,,,,,,,,,,,,# O,,# %,,* O,,* O,,,,,,,,,,,,,,,,,,<<<<<",
"<<<<<,,,,,,,,,,,,,,,,,,=  ;,+ -,,:. ;,# %,,,,,,,,,,,,,,,,,,<<<<<",
"<<<<<,,,,,,,,,,,,,,,,,,,o -:.X>,,,o %,o ;,,,,,,,,,,,,,,,,,,<<<<<",
"<<<<<,,,,,,,,,,,,,,,,,,,# $= $,,,,# $= O,,,,,,,,,,,,,,,,,,,<<<<<",
"<<<<<,,,,,,,,,,,,,,,,,,,* X@ %,,,,= X& $,,,,,,,,,,,,,,,,,,,<<<<<",
"<<<<<,,,,,,,,,,,,,,,,,,,:.   ;,,,,:.   -,,,,,,,,,,,,,,,,,,,<<<<<",
"<<<<<,,,,,,,,,,,,,,,,,,,,+  X>,,,,,+  X>,,,,,,,,,,,,,,,,,,,<<<<<",
"<<<<<,,,,,,,,,,,,,,,,,,,,*  $,,,,,,*  $,,,,,,,,,,,,,,,,,,,,<<<<<",
"<<<<<,,,,,,,,,,,,,,,,,,,,,,,,,,,,,,,,,,,,,,,,,,,,,,,,,,,,,,<<<<<",
"<<<<<,,,,,,,,,,,,,,,,,,,,,,,,,,,,,,,,,,,,,,,,,,,,,,,,,,,,,,<<<<<",
"<<<<<,,,,,,,,,,,,,,,,,,,,,,,,,,,,,,,,,,,,,,,,,,,,,,,,,,,,,,<<<<<",
"<<<<<,,,,,,,,,,,,,,,,,,,,,,,,,,,,,,,,,,,,,,,,,,,,,,,,,,,,,,<<<<<",
"<<<<<,,,,,,,,,,,,,,,,,,,,,,,,,,,,,,,,,,,,,,,,,,,,,,,,,,,,,,<<<<<",
"<<<<<,,,,,,,,,,,,,,,,,,,,,,,,,,,,,,,,,,,,,,,,,,,,,,,,,,,,,,<<<<<",
"<<<<<,,,,,,,,,,,,,,,,,,,,,,,,,,,,,,,,,,,,,,,,,,,,,,,,,,,,,,<<<<<",
"<<<<<,,,,,,,,,,,,,,,,,,,,,,,,,,,,,,,,,,,,,,,,,,,,,,,,,,,,,,<<<<<",
"<<<<<,,,,,,,,,,,,,,,,,,,,,,,,,,,,,,,,,,,,,,,,,,,,,,,,,,,,,,<<<<<",
"<<<<<,,,,,,,,,,,,,,,,,,,,,,,,,,,,,,,,,,,,,,,,,,,,,,,,,,,,,,<<<<<",
"<<<<<,,,,,,,,,,,,,,,,,,,,,,,,,,,,,,,,,,,,,,,,,,,,,,,,,,,,,,<<<<<",
"<<<<<,,,,,,,,,,,,,,,,,,,,,,,,,,,,,,,,,,,,,,,,,,,,,,,,,,,,,,<<<<<",
"<<<<<,,,,,,,,,,,,,,,,,,,,,,,,,,,,,,,,,,,,,,,,,,,,,,,,,,,,,,<<<<<",
"<<<<<,,,,,,,,,,,,,,,,,,,,,,,,,,,,,,,,,,,,,,,,,,,,,,,,,,,,,,<<<<<",
"<<<<<,,,,,,,,,,,,,,,,,,,,,,,,,,,,,,,,,,,,,,,,,,,,,,,,,,,,,,<<<<<",
"<<<<<,,,,,,,,,,,,,,,,,,,,,,,,,,,,,,,,,,,,,,,,,,,,,,,,,,,,,,<<<<<",
"<<<<<,,,,,,,,,,,,,,,,,,,,,,,,,,,,,,,,,,,,,,,,,,,,,,,,,,,,,,<<<<<",
"<<<<<,,,,,,,,,,,,,,,,,,,,,,,,,,,,,,,,,,,,,,,,,,,,,,,,,,,,,,<<<<<",
"<<<<<,,,,,,,,,,,,,,,,,,,,,,,,,,,,,,,,,,,,,,,,,,,,,,,,,,,,,,<<<<<",
"<<<<<,,,,,,,,,,,,,,,,,,,,,,,,,,,,,,,,,,,,,,,,,,,,,,,,,,,,,,<<<<<",
"<<<<<,,,,,,,,,,,,,,,,,,,,,,,,,,,,,,,,,,,,,,,,,,,,,,,,,,,,,,<<<<<",
"<<<<<<<<<<<<<<<<<<<<<<<<<<<<<<<<<<<<<<<<<<<<<<<<<<<<<<<<<<<<<<<<",
"<<<<<<<<<<<<<<<<<<<<<<<<<<<<<<<<<<<<<<<<<<<<<<<<<<<<<<<<<<<<<<<<",
"<<<<<<<<<<<<<<<<<<<<<<<<<<<<<<<<<<<<<<<<<<<<<<<<<<<<<<<<<<<<<<<<",
"<<<<<<<<<<<<<<<<<<<<<<<<<<<<<<<<<<<<<<<<<<<<<<<<<<<<<<<<<<<<<<<<",
"<<<<<<<<<<<<<<<<<<<<<<<<<<<<<<<<<<<<<<<<<<<<<<<<<<<<<<<<<<<<<<<<"
};
