/* XPM */
static char *result[] = {
/* columns rows colors chars-per-pixel */
"64 64 3 1 ",
"  c black",
". c #ED1C24",
"X c #22B14C",
/* pixels */
" XXXXXXXXXXXXXXX.XXXXXXX XXXXXX..XXXXXX XXXXXXX.XXXXXXXXXXXXXXX ",
". XXXXXXXXXXXXXX.XXXXXXX XXXXXX..XXXXXX XXXXXXX.XXXXXXXXXXXXXX .",
".X XXXXXXXXXXXXX.XXXXXXX XXXXXX..XXXXXX XXXXXXX.XXXXXXXXXXXXX X.",
".XX XXXXXXXXXXXX.XXXXXXX XXXXXX..XXXXXX XXXXXXX.XXXXXXXXXXXX XX.",
".XXX XXXXXXXXXXX.XXXXXXX XXXXXX..XXXXXX XXXXXXX.XXXXXXXXXXX XXX.",
".XXXX XXXXXXXXXX.XXXXXXX XXXXXX..XXXXXX XXXXXXX.XXXXXXXXXX XXXX.",
".XXXXX XXXXXXXXX.XXXXXXX XXXXXX..XXXXXX XXXXXXX.XXXXXXXXX XXXXX.",
".XXXXXX XXXXXXXX.XXXXXXX XXXXXX..XXXXXX XXXXXXX.XXXXXXXX XXXXXX.",
".XXXXXXX XXXXXXX.XXXXXXX XXXXXX..XXXXXX XXXXXXX.XXXXXXX XXXXXXX.",
".XXXXXXXX XXXXXX.XXXXXXX XXXXXX..XXXXXX XXXXXXX.XXXXXX XXXXXXXX.",
".XXXXXXXXX XXXXX.XXXXXXX XXXXXX..XXXXXX XXXXXXX.XXXXX XXXXXXXXX.",
".XXXXXXXXXX XXXX.XXXXXXX XXXXXX..XXXXXX XXXXXXX.XXXX XXXXXXXXXX.",
".XXXXXXXXXXX XXX.XXXXXXX XXXXXX..XXXXXX XXXXXXX.XXX XXXXXXXXXXX.",
".XXXXXXXXXXXX XX.XXXXXXX XXXXXX..XXXXXX XXXXXXX.XX XXXXXXXXXXXX.",
".XXXXXXXXXXXXX X.XXXXXXX XXXXXX..XXXXXX XXXXXXX.X XXXXXXXXXXXXX.",
".XXXXXXXXXXXXXX .XXXXXXX XXXXXX..XXXXXX XXXXXXX. XXXXXXXXXXXXXX.",
".XXXXXXXXXXXXXXX                                XXXXXXXXXXXXXXX.",
".XXXXXXXXXXXXXXX. XXXXXX XXXXXX..XXXXXX XXXXXX .XXXXXXXXXXXXXXX.",
".XXXXXXXXXXXXXXX.X XXXXX XXXXXX..XXXXXX XXXXX X.XXXXXXXXXXXXXXX.",
".XXXXXXXXXXXXXXX.XX XXXX XXXXXX..XXXXXX XXXX XX.XXXXXXXXXXXXXXX.",
".XXXXXXXXXXXXXXX.XXX XXX XXXXXX..XXXXXX XXX XXX.XXXXXXXXXXXXXXX.",
".XXXXXXXXXXXXXXX.XXXX XX XXXXXX..XXXXXX XX XXXX.XXXXXXXXXXXXXXX.",
".XXXXXXXXXXXXXXX.XXXXX X XXXXXX..XXXXXX X XXXXX.XXXXXXXXXXXXXXX.",
".XXXXXXXXXXXXXXX.XXXXXX  XXXXXX..XXXXXX  XXXXXX.XXXXXXXXXXXXXXX.",
".XXXXXXXXXXXXXXX.XXXXXXX                XXXXXXX.XXXXXXXXXXXXXXX.",
".XXXXXXXXXXXXXXX.XXXXXXX  XXXXX..XXXXX  XXXXXXX.XXXXXXXXXXXXXXX.",
".XXXXXXXXXXXXXXX.XXXXXXX X XXXX..XXXX X XXXXXXX.XXXXXXXXXXXXXXX.",
".XXXXXXXXXXXXXXX.XXXXXXX XX XXX..XXX XX XXXXXXX.XXXXXXXXXXXXXXX.",
".XXXXXXXXXXXXXXX.XXXXXXX XXX XX..XX XXX XXXXXXX.XXXXXXXXXXXXXXX.",
".XXXXXXXXXXXXXXX.XXXXXXX XXXX X..X XXXX XXXXXXX.XXXXXXXXXXXXXXX.",
".XXXXXXXXXXXXXXX.XXXXXXX XXXXX .. XXXXX XXXXXXX.XXXXXXXXXXXXXXX.",
".XXXXXXXXXXXXXXX.XXXXXXX XXXXXX  XXXXXX XXXXXXX.XXXXXXXXXXXXXXX.",
".XXXXXXXXXXXXXXX.XXXXXXX XXXXXX  XXXXXX XXXXXXX.XXXXXXXXXXXXXXX.",
".XXXXXXXXXXXXXXX.XXXXXXX XXXXX .. XXXXX XXXXXXX.XXXXXXXXXXXXXXX.",
".XXXXXXXXXXXXXXX.XXXXXXX XXXX X..X XXXX XXXXXXX.XXXXXXXXXXXXXXX.",
".XXXXXXXXXXXXXXX.XXXXXXX XXX XX..XX XXX XXXXXXX.XXXXXXXXXXXXXXX.",
".XXXXXXXXXXXXXXX.XXXXXXX XX XXX..XXX XX XXXXXXX.XXXXXXXXXXXXXXX.",
".XXXXXXXXXXXXXXX.XXXXXXX X XXXX..XXXX X XXXXXXX.XXXXXXXXXXXXXXX.",
".XXXXXXXXXXXXXXX.XXXXXXX  XXXXX..XXXXX  XXXXXXX.XXXXXXXXXXXXXXX.",
".XXXXXXXXXXXXXXX.XXXXXXX                XXXXXXX.XXXXXXXXXXXXXXX.",
".XXXXXXXXXXXXXXX.XXXXXX  XXXXXX..XXXXXX  XXXXXX.XXXXXXXXXXXXXXX.",
".XXXXXXXXXXXXXXX.XXXXX   XXXXXX..XXXXXX X XXXXX.XXXXXXXXXXXXXXX.",
".XXXXXXXXXXXXXXX.XXXX XX XXXXXX..XXXXXX XX XXXX.XXXXXXXXXXXXXXX.",
".XXXXXXXXXXXXXXX.XXX XXX XXXXXX..XXXXXX XXX XXX.XXXXXXXXXXXXXXX.",
".XXXXXXXXXXXXXXX.XX XXXX XXXXXX..XXXXXX XXXX XX.XXXXXXXXXXXXXXX.",
".XXXXXXXXXXXXXXX.X XXXXX XXXXXX..XXXXXX XXXXX X.XXXXXXXXXXXXXXX.",
".XXXXXXXXXXXXXXX. XXXXXX XXXXXX..XXXXXX XXXXXX .XXXXXXXXXXXXXXX.",
".XXXXXXXXXXXXXXX                                XXXXXXXXXXXXXXX.",
".XXXXXXXXXXXXXX .XXXXXXX XXXXXX..XXXXXX XXXXXXX. XXXXXXXXXXXXXX.",
".XXXXXXXXXXXXX X.XXXXXXX XXXXXX..XXXXXX XXXXXXX.X XXXXXXXXXXXXX.",
".XXXXXXXXXXXX XX.XXXXXXX XXXXXX..XXXXXX XXXXXXX.XX XXXXXXXXXXXX.",
".XXXXXXXXXXX XXX.XXXXXXX XXXXXX..XXXXXX XXXXXXX.XXX XXXXXXXXXXX.",
".XXXXXXXXXX XXXX.XXXXXXX XXXXXX..XXXXXX XXXXXXX.XXXX XXXXXXXXXX.",
".XXXXXXXXX XXXXX.XXXXXXX XXXXXX..XXXXXX XXXXXXX.XXXXX XXXXXXXXX.",
".XXXXXXXX XXXXXX.XXXXXXX XXXXXX..XXXXXX XXXXXXX.XXXXXX XXXXXXXX.",
".XXXXXXX XXXXXXX.XXXXXXX XXXXXX..XXXXXX XXXXXXX.XXXXXXX XXXXXXX.",
".XXXXXX XXXXXXXX.XXXXXXX XXXXXX..XXXXXX XXXXXXX.XXXXXXXX XXXXXX.",
".XXXXX XXXXXXXXX.XXXXXXX XXXXXX..XXXXXX XXXXXXX.XXXXXXXXX XXXXX.",
".XXXX XXXXXXXXXX.XXXXXXX XXXXXX..XXXXXX XXXXXXX.XXXXXXXXXX XXXX.",
".XXX XXXXXXXXXXX.XXXXXXX XXXXXX..XXXXXX XXXXXXX.XXXXXXXXXXX XXX.",
".XX XXXXXXXXXXXX.XXXXXXX XXXXXX..XXXXXX XXXXXXX.XXXXXXXXXXXX XX.",
".X XXXXXXXXXXXXX.XXXXXXX XXXXXX..XXXXXX XXXXXXX.XXXXXXXXXXXXX X.",
". XXXXXXXXXXXXXX.XXXXXXX XXXXXX..XXXXXX XXXXXXX.XXXXXXXXXXXXXX .",
" XXXXXXXXXXXXXXX.XXXXXXX XXXXXX..XXXXXX XXXXXXX.XXXXXXXXXXXXXXX "
};
