/* XPM */
static char *result[] = {
/* columns rows colors chars-per-pixel */
"100 100 52 1 ",
"  c black",
". c #241000",
"X c #391C00",
"o c #3B1D00",
"O c #4B2600",
"+ c #512A00",
"@ c #542B00",
"# c #552C00",
"$ c #592F00",
"% c #5F3200",
"& c #623400",
"* c #663600",
"= c #6F3B00",
"- c #703C00",
"; c #7C4300",
": c #7D4300",
"> c #8A4C00",
", c #8C4D00",
"< c #904F00",
"1 c #955200",
"2 c #975300",
"3 c #995400",
"4 c #9A5500",
"5 c #A25900",
"6 c #A75C00",
"7 c #AA5E00",
"8 c #B16200",
"9 c #B56500",
"0 c #B86600",
"q c #BA6700",
"w c #BC6800",
"e c #C56E00",
"r c #C76F00",
"t c #CB7200",
"y c #CE7300",
"u c #D07400",
"i c #D17500",
"p c #D37600",
"a c #D77800",
"s c #D77900",
"d c #D97A00",
"f c #DA7A00",
"g c #DF7D00",
"h c #E07E00",
"j c #E68100",
"k c #E78200",
"l c #EC8500",
"z c #F38900",
"x c #F58A00",
"c c #F68B00",
"v c #FA8D00",
"b c #FF9000",
/* pixels */
"      kbbbbbw                                                                                       ",
"      kbbbbbw                                                                                       ",
"      kbbbbbw                                                                                       ",
"kkkkkkvbbbbbw                  ikkkkk7                              -kkkkkk                         ",
"bbbbbbbbbbbbw                  kbbbbbw                              :bbbbbb                         ",
"bbbbbbbbbbbbw                  kbbbbbw                              :bbbbbb                         ",
"bbbbbbbbbbbbw     &tttttt      377777wttttttttttttttttttttttttttttttsbbbbbb                         ",
"bbbbbbbbbbbbw     :bbbbbb            wbbbbbbbbbbbbbbbbbbbbbbbbbbbbbbbbbbbbb                         ",
"bbbbbbbbbbbbw     :bbbbbb            wbbbbbbbbbbbbbbbbbbbbbbbbbbbbbbbbbbbbb                         ",
"bbbbbbbbbbbbw     :bbbbbb            wbbbbbcyyyyyyyyyyyyyyyyyyyyyyyydbbbbbb                         ",
"bbbbbbbbbbbbw     :bbbbbb            wbbbbbk                        :bbbbbb                         ",
"bbbbbbbbbbbbw     :bbbbbb            wbbbbbk                        :bbbbbb                         ",
"bbbbbbbbbbbbw     :bbbbbb      O@@@@@wxxxxxh@@@@@@            o@@@@@>xxxxxx@@@@@@.                  ",
"bbbbbbbbbbbbw     :bbbbbb      kbbbbbw     :bbbbbb            wbbbbbk      bbbbbb:                  ",
"bbbbbbbbbbbbw     :bbbbbb      kbbbbbw     :bbbbbb            wbbbbbk      bbbbbb:                  ",
"bbbbbbbbbbbbw     :bbbbbb      kbbbbbw     :bbbbbb            wbbbbbk      bbbbbb:                  ",
";;;;;;lbbbbbzkkkkka;;;;;;      kbbbbbzkkkkka;;;;;;            $;;;;;4kkkkkkbbbbbb:                  ",
"      kbbbbbbbbbbbk            kbbbbbbbbbbbk                        :bbbbbbbbbbbb:                  ",
"      kbbbbbbbbbbbk            kbbbbbbbbbbbk                        :bbbbbbbbbbbb:                  ",
"      kbbbbbf777773            377777fbbbbbk                        :bbbbbb777777+                  ",
"      kbbbbbw                        wbbbbbk                        :bbbbbb                         ",
"      kbbbbbw                        wbbbbbk                        :bbbbbb                         ",
"      kbbbbbf777773                  wbbbbbk      777777777777;     :bbbbbb                         ",
"      kbbbbbbbbbbbk                  wbbbbbk      bbbbbbbbbbbbw     :bbbbbb                         ",
"      kbbbbbbbbbbbk                  wbbbbbk      bbbbbbbbbbbbw     :bbbbbb                         ",
"      kbbbbbbbbbbbl;;;;;;      =;;;;;wkkkkki      kkkkkkkkkkkk7     -kkkkkk;;;;;;X                  ",
"      kbbbbbbbbbbbbbbbbbb      kbbbbbw                                     bbbbbb:                  ",
"      kbbbbbbbbbbbbbbbbbb      kbbbbbw                                     bbbbbb:                  ",
"      kbbbbbbbbbbbbbbbbbb      kbbbbbw                                     bbbbbb:                  ",
"      kbbbbbbbbbbbk      bbbbbb:                        kbbbbbbbbbbbbbbbbbbbbbbbbbbbbbbbbbbbbk      ",
"      kbbbbbbbbbbbk      bbbbbb:                        kbbbbbbbbbbbbbbbbbbbbbbbbbbbbbbbbbbbbk      ",
"      kbbbbbbbbbbbk      bbbbbb:                        kbbbbbbbbbbbbbbbbbbbbbbbbbbbbbbbbbbbbk      ",
"      kbbbbbt;;;;;4kkkkkk;;;;;;X                  kkkkkk4;;;;;;;;;;;;;;;;;;;;;;;;;;;;;;;;;;;;4kkkkkk",
"      kbbbbbw     :bbbbbb                         bbbbbb:                                    :bbbbbb",
"      kbbbbbw     :bbbbbb                         bbbbbb:                                    :bbbbbb",
"      kbbbbbw     #888888eeeeee%                  bbbbbbpeeeee<                        <eeeeepbbbbbb",
"      kbbbbbw            bbbbbb:                  bbbbbbbbbbbbw                        wbbbbbbbbbbbb",
"      kbbbbbw            bbbbbb:                  bbbbbbbbbbbbw                        wbbbbbbbbbbbb",
"      kbbbbbw            gggggg5,,,,,*            bbbbbbjgggggw,,,,,,,,,,,,,,,,,,,,,,,,wgggggjbbbbbb",
"      kbbbbbw                  kbbbbbw            bbbbbb:     wbbbbbbbbbbbbbbbbbbbbbbbbw     :bbbbbb",
"      kbbbbbw                  kbbbbbw            bbbbbb:     wbbbbbbbbbbbbbbbbbbbbbbbbw     :bbbbbb",
"      kbbbbbw                  kbbbbbw            bbbbbb:     wbbbbbbbbbbbbbbbbbbbbbbbbw     :bbbbbb",
"      kbbbbbw                  kbbbbbw            bbbbbb:           :bbbbbbbbbbbb:           :bbbbbb",
"      kbbbbbw                  kbbbbbw            bbbbbb:           :bbbbbbbbbbbb:           :bbbbbb",
"      kbbbbbw                  kbbbbbw            bbbbbb:           :bbbbbbbbbbbb:           :bbbbbb",
"      kbbbbbw                  kbbbbbw            bbbbbb:     7kkkkklbbbbbbbbbbbblkkkkk7     :bbbbbb",
"      kbbbbbw                  kbbbbbw            bbbbbb:     wbbbbbbbbbbbbbbbbbbbbbbbbw     :bbbbbb",
"      kbbbbbw                  kbbbbbw            bbbbbb:     wbbbbbbbbbbbbbbbbbbbbbbbbw     :bbbbbb",
"      kbbbbbw                  kbbbbbw            bbbbbbstttttw777777777777777777777777wtttttsbbbbbb",
"      kbbbbbw                  kbbbbbw            bbbbbbbbbbbbw                        wbbbbbbbbbbbb",
"      kbbbbbw                  kbbbbbw            bbbbbbbbbbbbw                        wbbbbbbbbbbbb",
"      kbbbbbw                  kbbbbbw            bbbbbbsttttt1                        1tttttsbbbbbb",
"      kbbbbbw                  kbbbbbw            bbbbbb:                                    :bbbbbb",
"      kbbbbbw                  kbbbbbw            bbbbbb:                                    :bbbbbb",
"      kbbbbbw                  kbbbbbt;;;;;=      bbbbbb:                                    :bbbbbb",
"      kbbbbbw                  kbbbbbbbbbbbk      bbbbbb:                                    :bbbbbb",
"      kbbbbbw                  kbbbbbbbbbbbk      bbbbbb:                                    :bbbbbb",
"      kbbbbbw                  kbbbbbbbbbbbk      bbbbbb:                                    :bbbbbb",
"      kbbbbbw                  kbbbbbbbbbbbbbbbbbbbbbbbb:                                    :bbbbbb",
"      kbbbbbw                  kbbbbbbbbbbbbbbbbbbbbbbbb:                                    :bbbbbb",
"      kbbbbbw                  kbbbbbbbbbbbbbbbbbbbbbbbb:                                    :bbbbbb",
"      kbbbbbw                  kbbbbbu,,,,,,,,,,,,bbbbbb:                                    :bbbbbb",
"      kbbbbbw                  kbbbbbw            bbbbbb:                                    :bbbbbb",
"      kbbbbbw                  kbbbbbw            bbbbbb:                                    :bbbbbb",
"      kbbbbbw                  kbbbbbw            eeeeee98888888888888888888888888888888888889eeeeee",
"      kbbbbbw                  kbbbbbw                  kbbbbbbbbbbbbbbbbbbbbbbbbbbbbbbbbbbbbk      ",
"      kbbbbbw                  kbbbbbw                  kbbbbbbbbbbbbbbbbbbbbbbbbbbbbbbbbbbbbk      ",
"      kbbbbbw                  kbbbbbw                  ikkkkkkkkkkkkkkkkkkkkkkkkvbbbbbzkkkkki      ",
"      kbbbbbw                  kbbbbbw                                           kbbbbbw            ",
"      kbbbbbw                  kbbbbbw                                           kbbbbbw            ",
"      kbbbbbw                  kbbbbbw                                           kbbbbbw            ",
"      kbbbbbw                  kbbbbbw                                                 wbbbbbk      ",
"      kbbbbbw                  kbbbbbw                                                 wbbbbbk      ",
"      kbbbbbw                  kbbbbbw                                                 wbbbbbk      ",
"      kbbbbbw            kkkkkk4;;;;;$                  ikkkkkkkkkkki                  wbbbbbk      ",
"      kbbbbbw            bbbbbb:                        kbbbbbbbbbbbk                  wbbbbbk      ",
"      kbbbbbw            bbbbbb:                        kbbbbbbbbbbbk                  wbbbbbk      ",
"      kbbbbbw     &tttttt777777+                  tttttt8777777777778tttttt            wbbbbbk      ",
"      kbbbbbw     :bbbbbb                         bbbbbb:           :bbbbbb            wbbbbbk      ",
"      kbbbbbw     :bbbbbb                         bbbbbb:           :bbbbbb            wbbbbbk      ",
"      kbbbbbw     :bbbbbb                  +777777tttttt&           :bbbbbb            wbbbbbk      ",
"      kbbbbbw     :bbbbbb                  :bbbbbb                  :bbbbbb            wbbbbbk      ",
"      kbbbbbw     :bbbbbb                  :bbbbbb                  :bbbbbb            wbbbbbk      ",
"      kbbbbbw     :bbbbbb            $;;;;;4kkkkkk                  :bbbbbb            wbbbbbk      ",
"      kbbbbbw     :bbbbbb            wbbbbbk                        :bbbbbb            wbbbbbk      ",
"      kbbbbbw     :bbbbbb            wbbbbbk                        :bbbbbb            wbbbbbk      ",
"      kbbbbbw     :bbbbbb            wbbbbbk                        :bbbbbb            wbbbbbk      ",
"      O@@@@@o     :bbbbbb            wbbbbbk                        :bbbbbb            wbbbbbk      ",
"                  :bbbbbb            wbbbbbk                        :bbbbbb            wbbbbbk      ",
"                  :bbbbbb            wbbbbbk                        :bbbbbb            wbbbbbk      ",
"      qyyyyyyyyyyyr666666            wbbbbbk                  2yyyyydbbbbbb            wbbbbbk      ",
"      kbbbbbbbbbbbk                  wbbbbbk                  wbbbbbbbbbbbb            wbbbbbk      ",
"      kbbbbbbbbbbbk                  wbbbbbk                  wbbbbbbbbbbbb            wbbbbbk      ",
"777777ettttttttttt0                  wbbbbbk            377777wtttttttttttt            wbbbbbk      ",
"bbbbbb:                              wbbbbbk            kbbbbbw                        wbbbbbk      ",
"bbbbbb:                              wbbbbbk            kbbbbbw                        wbbbbbk      ",
"kkkkkk4;;;;;;;;;;;;;;;;;;;;;;;;;;;;;;wkkkkki            ikkkkkw;;;;;;;;;;;;;;;;;;;;;;;;wkkkkki      ",
"      kbbbbbbbbbbbbbbbbbbbbbbbbbbbbbbw                        wbbbbbbbbbbbbbbbbbbbbbbbbw            ",
"      kbbbbbbbbbbbbbbbbbbbbbbbbbbbbbbw                        wbbbbbbbbbbbbbbbbbbbbbbbbw            ",
"      kbbbbbbbbbbbbbbbbbbbbbbbbbbbbbbw                        wbbbbbbbbbbbbbbbbbbbbbbbbw            "
};
