/* XPM */
static char *result[] = {
/* columns rows colors chars-per-pixel */
"48 48 256 2 ",
"   c #000004",
".  c #04020C",
"X  c #09070D",
"o  c #040214",
"O  c #0D0B13",
"+  c #04021B",
"@  c #0B061B",
"#  c #0D0A1C",
"$  c #0A0616",
"%  c #110C17",
"&  c #14131B",
"*  c #19161A",
"=  c #17050F",
"-  c #280E1C",
";  c #2C121B",
":  c #281415",
">  c #2B1215",
",  c #0D0B23",
"<  c #080626",
"1  c #120C23",
"2  c #150C2B",
"3  c #09122C",
"4  c #171526",
"5  c #080A33",
"6  c #160C37",
"7  c #091739",
"8  c #1A1535",
"9  c #2B1427",
"0  c #321627",
"q  c #241735",
"w  c #341936",
"e  c #210B3F",
"r  c #172131",
"t  c #262829",
"y  c #282836",
"u  c #332F2D",
"i  c #2B221D",
"p  c #483438",
"a  c #421D29",
"s  c #3D483E",
"d  c #564F38",
"f  c #645434",
"g  c #776A3A",
"h  c #180A44",
"j  c #081E42",
"k  c #1D1445",
"l  c #130A4C",
"z  c #251849",
"x  c #2F0D52",
"c  c #0B2C4D",
"v  c #082648",
"b  c #0B3C5C",
"n  c #063457",
"m  c #0A2F51",
"M  c #2E2F4C",
"N  c #10086C",
"B  c #182C6D",
"V  c #4C0877",
"C  c #6D0A72",
"Z  c #4E2659",
"A  c #0F405E",
"S  c #35464F",
"D  c #0A4564",
"F  c #084969",
"G  c #09516F",
"H  c #045372",
"J  c #085979",
"K  c #0F4D6B",
"L  c #05617E",
"P  c #5C5647",
"I  c #4F524F",
"U  c #645649",
"Y  c #685552",
"T  c #725351",
"R  c #776A47",
"E  c #797547",
"W  c #7A6557",
"Q  c #676F51",
"!  c #576A66",
"~  c #677868",
"^  c #777A63",
"/  c #585859",
"(  c #907537",
")  c #AF7D3E",
"_  c #905F3F",
"`  c #955750",
"'  c #996648",
"]  c #877745",
"[  c #97755A",
"{  c #94694F",
"}  c #AC744C",
"|  c #B27747",
" . c #AA6853",
".. c #A97654",
"X. c #B07854",
"o. c #AD6950",
"O. c #967868",
"+. c #8E756C",
"@. c #A8797A",
"#. c #B07A6E",
"$. c #A65D54",
"%. c #CA7C7C",
"&. c #E2627E",
"*. c #A21076",
"=. c #7D8A54",
"-. c #7A8D6D",
";. c #6D8577",
":. c #778B76",
">. c #7D9272",
",. c #7D9479",
"<. c #7D916E",
"1. c #A78D3D",
"2. c #A89B3C",
"3. c #D9B83E",
"4. c #F0D73F",
"5. c #858249",
"6. c #908E52",
"7. c #AF8D4B",
"8. c #9DA959",
"9. c #9FB15E",
"0. c #A7AD5C",
"q. c #A4B45D",
"w. c #AAB55B",
"e. c #ADB95C",
"r. c #B6B958",
"t. c #B8AF4A",
"y. c #83956D",
"u. c #85996B",
"i. c #8B9C6B",
"p. c #8A9A68",
"a. c #839773",
"s. c #879B76",
"d. c #958C70",
"f. c #A7876A",
"g. c #A78873",
"h. c #B78A79",
"j. c #B69478",
"k. c #B28F6F",
"l. c #8DA26B",
"z. c #8DA365",
"x. c #94A565",
"c. c #95AA65",
"v. c #9AAC64",
"b. c #93A46A",
"n. c #95A96A",
"m. c #9AAB6B",
"M. c #9AA56A",
"N. c #9DB164",
"B. c #9DB16C",
"V. c #8CA478",
"C. c #92A774",
"Z. c #A3AC63",
"A. c #A5AC68",
"S. c #A3B362",
"D. c #A8B465",
"F. c #B2B762",
"G. c #AFA474",
"H. c #D8BA49",
"J. c #C2B955",
"K. c #CBB350",
"L. c #EABC59",
"P. c #C68578",
"I. c #D6897C",
"U. c #C39879",
"Y. c #D9987A",
"T. c #D98F6E",
"R. c #E7887C",
"E. c #E7997A",
"W. c #FA9978",
"Q. c #E99A68",
"!. c #D8A678",
"~. c #CAA86A",
"^. c #FAB46D",
"/. c #F8BB6A",
"(. c #EBAA79",
"). c #FBAC74",
"_. c #FCA37D",
"`. c #FFAC7B",
"'. c #F5A777",
"]. c #EAB679",
"[. c #F4B374",
"{. c #FBB473",
"}. c #FCBB72",
"|. c #FCB37B",
" X c #FCBB7A",
".X c #F5B776",
"XX c #F1AC6A",
"oX c #C28953",
"OX c #BCC457",
"+X c #B7C466",
"@X c #CBC64D",
"#X c #D8CB4C",
"$X c #DBD24A",
"%X c #C7C455",
"&X c #D4C854",
"*X c #E6CD49",
"=X c #E8D449",
"-X c #F7DA49",
";X c #EAC757",
":X c #F7CA59",
">X c #FBD756",
",X c #E6D34D",
"<X c #FEE548",
"1X c #FCE654",
"2X c #FCF852",
"3X c #FEC36D",
"4X c #FBC765",
"5X c #FED665",
"6X c #FEC373",
"7X c #FDC378",
"8X c #EFC068",
"9X c #24229F",
"0X c #700490",
"qX c #046685",
"wX c #1A7992",
"eX c #237890",
"rX c #2627DA",
"tX c #3641F6",
"yX c #91068D",
"uX c #AF1290",
"iX c #A6119E",
"pX c #CF328A",
"aX c #D95383",
"sX c #CE7981",
"dX c #EA7587",
"fX c #3D859D",
"gX c #308DA7",
"hX c #4C91A8",
"jX c #51A6B9",
"kX c #7DA6B5",
"lX c #66A5B7",
"zX c #70959A",
"xX c #B48882",
"cX c #B59386",
"vX c #88B1BD",
"bX c #AA9988",
"nX c #DD8882",
"mX c #C79E84",
"MX c #DB9A87",
"NX c #C88382",
"BX c #E69582",
"VX c #F99583",
"CX c #EA8B87",
"ZX c #C8A48C",
"AX c #D6A987",
"SX c #D8B18F",
"DX c #F9A983",
"FX c #E8B484",
"GX c #F0AD83",
"HX c #FFC388",
"JX c #8EB8C1",
"KX c #AECCD5",
"LX c #90C0CE",
"PX c #D7ECF1",
"IX c #F1EAE9",
"UX c #FFD3C0",
/* pixels */
"a w - w 0 - ; ; - 9 9 9 9 e q w w 9 9 0 9 9 9 0 0 0 ; ; ; : ; ; > ; ; 0 ; 9 9 x C *.uX*.x a - a ",
"9 8 + 4 1 o , + < 6 l N 9XV < 3 k z 6 6 2 1 , @ $ . o & O & d * O 4 # # # @ 5 0XpXL.Q.&.yXx < w ",
"9 , 1 @ @ 2 2 < 6 6 N rXtXtXrX9Xl h 6 2 2 q y # @ # O O @ u 5.u % % & 1 1 x V yX&.<X1X4XpX0Xx 0 ",
"9 4 8 2 @ @ 1 < < 6 l N 9X9X9XN 6 z z + + @ @ 1 . . . 4 @ $ * . X . . . # e C uX&.1X2X1X&.uXV 0 ",
"9 , 8 , 2 < q 8 2 8 6 2 5 k p U Y z Z P W W Y Y Y P I p -   . # . . $ # 2 2 2 0X&.;X5XQ.pX0Xl 0 ",
"q k 6 k z 1 8 8 , q , @ / g.k.j.j.cXAXSXZXZXbXZXAXSXmXg.O.W u @ # o O 1 1 1 x 0XiXpXaXiXyX9X< 0 ",
"q z z x z 2 1 q 6 + y +.O.h.G.ZXAXAXAXSXZXcXbXcXMXFXSXZXSXZXk.{ u 1 8 q = @ 6 x 0XC yX0Xx h o ; ",
"q < z z 8 k q Z Z / d.g.U.AXZXAXFXZXcXf.f.] R f f U W Y +.cXcXbXg.U & 1 9 & % 4 k $ C V z 2 < w ",
"z 8 8 z 8 < + Z cXg.j.AXFXAXAXAXj.W E 6.t.$X@XOXOXOX@XOX6.E d.ZXmXh.+.u % O O % % $ x 2 4 1 3 0 ",
"w e 6 2 4 O 4 d.f.j.FX~.k.FXSXd.R t.$X-X=X$X,X,X&X%X&X$X=X=Xt.f.AXAXU.O.*   O O = = $ @ o , 1 0 ",
"w 8 4 % . 4 bXg.AX(.:X5.&X5Xf.E %X-X,Xr.N.c.v.M.u.>.-.>.M.r.%Xt.j.AXZX(.[ u     O O X 4 8 . # ; ",
"0 % O % X +.d.!.].>Xt.g 8XK.E %X%X@Xr.y.;.,.s.N.N.c.c.l.b.N.z.l.Q O.AXFX[.#.T i . O . X . X t > ",
"- . O   P f.U.AX;X>X( 8.J.5.OX,Xr.n.i.a.u.l.z.D.e.N.q.q.8.q.+Xz.i.Q W 8X3X/...g.p   t X 4 X   > ",
"; & % * d.k.FXXX-X-XE +X6.z.&X=XD.a.b.x.n.V.,.,.s.u.C.B.q.9.9.q.M.V.! +.8X:X:X..g.Y :     t & > ",
": O . P f.!.].:X1Xt.=.+XZ.v.OXw.l.C.l.C.~ s y 4 & 4 y I ~ s.N.9.n.u.n.I J.<X-X=XO.xX+.U u u   > ",
": O t 6.j.].(.-X>X] x.Z.c.r.r.z.N.B.s.u .   o + + < + < , I -.C.v.n.s.8.E ;X-X<XK.+.h.h.j.{ i > ",
":   d f.!.(.:X-XH.=.S.v.9.OXN.9.C.:.r   . @ < < 5 7 l j 7 5 7 ~ C.B.u.b.0.r.;X*X1X6.xX%.%.dXP.f ",
"= i f.U.]./.-X<X7.z.q.9.q.w.c.n.;.4   X < < 5 7 j v c m c c j 7 ~ l.m.y.x.#X*X,X<XK.O.NX%.sXCX` ",
"u 6.j.FX(.-X<XL.=.9.q.v.e.q.<.,.y   # # 5 7 j c n A D D D b b m M zXC.m.x.J.=XH.,X-X7.h.I.sXdX` ",
"U h.(.[.;X>X}.k.=.N.v.x.m.v.,.I O + < 7 j v n b F H J J H J H K n ! V.n.z.q.$XA.&X>XH.O.nXCXCX` ",
"T ].:X;X:X(.(.O.6.N.N.z.i.l.;.t o 3 3 v c n D G H qXqXqXqXqXqXJ F b :.s.b.i.$XF.D.>X*X6.#.VXDX$.",
"{ 2X-X/.[.(.(.{ =.B.c.C.l.V.! o 3 8 v m n F H J qXwXjXjXgXqXqXJ F n ! s.n.l.%X&XA.,X-XJ.k.BX'.$.",
"1.1XXX'.'.XX(.W x.m.v.l.i.C.I + 3 v c A H F qXgXlXJXkXJXjXqXqXJ F n S ,.n.b.D.&X&X*X<X#X7.E.`. .",
"}  XE.{.(.[.I.Y c.b.i.m.u.s.S + 7 m D F H wXlXKXPXKXkXlXqXqXJ K D n S :.l.c.v.%X%XJ.-X=X~.cXGX .",
"{ GX^. XE.6XT./ c.l.:.l.>.zXS < c A D G fXLXPXPXKXlXfXqXqXJ K D n 7 y ;.z.c.z.e.M.F.-X<Xr.cXBX .",
"` |./.{.[.3XY.P z.C.<.u.<.:.S 7 A A G fXvXPXKXkXhXqXqXqXJ D b c r 3 t ;.C.c.z.OXp.x.=X4.%XG.AX .",
"{ 6X/.`./.3X(.Y 6.n.n.m.y.:./ v A D fXvXkXkXhXgXqXJ J K D m c 7 3 O t ;.c.c.z.OXx.<.%X<X#XG.GXX.",
"W :X/._..X3X).+.Q m.z.m.n.:.~ m A D fXlXhXgXL J J K D b c v 3 # O   s bXz.N.N.+Xp.-.J.<X,XJ.DXo.",
"' 5X^.DX(.|.|.Y.f A.l.l.n.<.,.S n F G H H G G F D b c v 7 , $ .     ~ V.x.x.v.r.b.-.F.*X=X0.|.o.",
"1.>X).'.P.I.(.GX6.5.+Xl.n.b.,.! c A D D F F A n c v 3 3 @ . . .   r :.>.m.x.v.r.M.y.A.*X=XZ.|.| ",
"1.5X).R.@.h.(.BX!.d 8.+Xi.A.z.,.S v A n n n v v 7 , # . .   & * . ~ ,.u.c.z.v.e.x.u.Z.*X=XZ.}.X.",
"7.4X).VX@.d.!.W.P.O.d e.D.m.D.>.:.A 7 r 7 7 3 , $ . X . . X O X I V.V.A.N.l.S.e.Z.x.Z.=X#XZ.4X} ",
"| }.).W.I.@.j.!.BXxX+.d D.v.>.v.z.;.y < 3 O $ . . X O . O     I V.z.m.B.x.b.S.Z.S.x.w.$X%X0.:X) ",
"' |._.DXnX@.P.Y.(.Y.g.+.P D.a.l.r.>.~ 4       X & .     . 4 ! V.<.z.m.c.x.c.v.q.S.b.OX%Xw.r.>X) ",
"' DX_.'.nXNX#.E.]./.~.d.+.s.A.a.S.N.>.;.I t & O .   & t I :.a.y.i.z.n.N.S.v.q.q.c.Z.e.r.r.&X>X) ",
"'  XW.).E.I.xXR.GX(.8Xj.d.^ d.l.c.N.c.V.V.V.>.-.~ -.<.,.C.l.s.V.C.n.x.v.v.v.q.q.S.e.r.&X=XK.:X) ",
"' 7XR.`.:XE.NXh.R.[./.(.j.Y 6.m.c.e.e.c.c.p.u.s.y.C.n.p.x.c.i.u.l.y.i.x.x.v.0.q.e.&X#X-XH.7.>X| ",
"' }.R.R.4X4XY.@.@.E.[.(.!.O.g OXB.9.OXz.c.x.p.u.-.l.m.v.N.D.S.n.x.z.y.i.i.w.9.v.#X=X*X4.7.L.4X| ",
"_ 3X).R.'.4X/.I.@.@.|.E.].U.g.] 8.N.8.e.9.x.c.z.<.y.b.m.z.m.m.M.m.A.M.x.i.b.S.@X*X-X<Xt.K.4X3X| ",
"' 3X{.W.%.W.4X(.nXP.(.7X4X4X!.k.g 6.OX#X$X@Xt.w.v.l.u.i.n.u.y.a.a.a.i.z.8.J.$X,X*X-X3.7.5X4X}.| ",
"' 3X:X4X).R.R.|..X.X'.}.6X6X{.(.U.] 5.4.4.-X4.$X#Xr.6.y.p.8.p.-.;.y.y.t.4.*X&X*X-X-XH.;X:X:X:X| ",
") 3X:X-X3X|.R.sX(.HX.X[.}.[.|./..XY.[ 5.@X-X-X*X$X$XK.J.0.J.#Xw.Z.s.J.-X@XK.;X:X:XL.[.:X>X:X6XX.",
"( 1X>X:X8X.X}.E.nXBX X}.7X.X'./.4X(.MX#.R 2.4.<X4.4.*X*X=X-X-X#Xr.~.*Xr.t.;XL.:X:X[.W./.>X:X XX.",
"( 1X>X4X:X:X/.I.%.sXMX{.{.|.|.^.).3X.X'.Y.O.( 2.t.3.4.-X<X>X-X=X-X-X>X-X-X>X>X/.4X).^.^./.4X XX.",
") 1X:X4X:X>X{.I.%.xXR.W.'.).^.^.{.).}.}.{.|.E.f...{ R ( ( ( ( ( ( ( g ( ( ( 1.) oXXX^./.:X/./.} ",
"( -X:X:X^.^.).VXR.%.sXCXW.W.W.).^.^.).XX'.XX'.E.E.Y.U.I.P.#.O.O.+.+.O...%.P.T.Q.Q.).W.^././.HXX.",
") 2X1X>X XCXCXVXVXVXnXnXVXVXW._.W.).6X6X)._._.`.`.).`.`.`.|.'.[.HXDXDXDXDX7X X X_._.).^.}.UXIX#.",
"f 7.7.7.7...` $.$.$. .O.{ o.o.o. .X.X.} ..o. ...} ' .. .` { { ` ....'  .} X.X.} o.o.f.....xXxX` "
};
